SplineFontDB: 3.0
FontName: Kawe
FullName: Kawe
FamilyName: Kawe
Weight: Regular
Copyright: Copyright (c) 2014, Julie Chane-Hive
UComments: "2014-7-27: Created with FontForge (http://fontforge.org)" 
Version: 00.001
ItalicAngle: 0
UnderlinePosition: -100
UnderlineWidth: 50
Ascent: 800
Descent: 200
LayerCount: 2
Layer: 0 0 "Back"  1
Layer: 1 0 "Fore"  0
XUID: [1021 83 2034817579 10197516]
FSType: 0
OS2Version: 0
OS2_WeightWidthSlopeOnly: 0
OS2_UseTypoMetrics: 1
CreationTime: 1406449372
ModificationTime: 1406471428
OS2TypoAscent: 0
OS2TypoAOffset: 1
OS2TypoDescent: 0
OS2TypoDOffset: 1
OS2TypoLinegap: 90
OS2WinAscent: 0
OS2WinAOffset: 1
OS2WinDescent: 0
OS2WinDOffset: 1
HheadAscent: 0
HheadAOffset: 1
HheadDescent: 0
HheadDOffset: 1
MarkAttachClasses: 1
DEI: 91125
Encoding: ISO8859-1
UnicodeInterp: none
NameList: AGL For New Fonts
DisplaySize: -48
AntiAlias: 1
FitToEm: 1
WinInfo: 0 17 9
BeginPrivate: 0
EndPrivate
BeginChars: 256 25

StartChar: a
Encoding: 97 97 0
Width: 1000
VWidth: 0
HStem: 402.964 1.39551<0.698242 999.301> 404.539 1.39648<0.698242 999.301>
VStem: 355.892 1.39844<284.635 521.799> 505.383 1.39551<8.02051 799.302> 506.423 1.39551<8.02051 799.302> 653.975 6.97852<284.635 403.662 407.152 521.799>
LayerCount: 2
Fore
SplineSet
658.732421875 283.23828125 m 1xe4
 658.27734375 523.194335938 l 1
 355.891601562 523.194335938 l 1
 356.348632812 283.23828125 l 1
 658.732421875 283.23828125 l 1xe4
656.883789062 521.798828125 m 1
 657.333984375 284.634765625 l 1
 357.741210938 284.634765625 l 1
 357.290039062 521.798828125 l 1
 656.883789062 521.798828125 l 1
507.120117188 641.932617188 m 1
 205.303710938 403.661132812 l 1
 507.046875 165.944335938 l 1
 808.934570312 404.641601562 l 1
 507.120117188 641.932617188 l 1
207.557617188 403.662109375 m 1
 507.12109375 640.15625 l 1
 806.680664062 404.638671875 l 1
 507.044921875 167.72265625 l 1
 207.557617188 403.662109375 l 1
507.125976562 800.192382812 m 1
 -0.435546875 403.662109375 l 1
 506.1875 7.12890625 l 1
 1000.41601562 405.239257812 l 1
 507.125976562 800.192382812 l 1
1.830078125 403.661132812 m 1
 507.115234375 798.412109375 l 1
 998.186523438 405.235351562 l 1
 506.17578125 8.9111328125 l 1
 1.830078125 403.661132812 l 1
658.033203125 283.936523438 m 1
 657.625 283.370117188 l 1
 658.2109375 282.948242188 362.5625 516.615234375 356.590820312 522.497070312 c 2
 356.17578125 523.057617188 l 1
 355.420898438 522.499023438 356.041992188 522.049804688 356.041992188 522.049804688 c 0
 358.651367188 518.5234375 656.161132812 284.52734375 657.595703125 283.392578125 c 0
 658.688476562 282.524414062 658.033203125 283.936523438 658.033203125 283.936523438 c 1
356.342773438 285.515625 m 1
 357.208007812 284.420898438 l 1
 658.013671875 521.94921875 l 1
 657.1484375 523.044921875 l 1
 356.342773438 285.515625 l 1
507.818359375 799.301757812 m 1xec
 506.422851562 799.302734375 l 1xec
 505.3828125 8.0205078125 l 1
 506.778320312 8.0185546875 l 1xf4
 507.818359375 799.301757812 l 1xec
999.302734375 404.5390625 m 1
 999.30078125 405.935546875 l 1
 0.6962890625 404.359375 l 1
 0.6982421875 402.963867188 l 1
 999.302734375 404.5390625 l 1
653.974609375 407.15234375 m 1
 653.974609375 286.66015625 l 1
 507.12109375 170.720703125 l 1
 362.40625 284.967773438 l 1
 508.33203125 400.170898438 l 1
 558.745117188 400.171875 603.084960938 403.661132812 657.463867188 403.662109375 c 1
 653.974609375 407.15234375 l 1
657.463867188 403.662109375 m 2
 657.463867188 410.0703125 516.918945312 407.149414062 507.12109375 407.149414062 c 0
 505.909179688 407.149414062 l 1
 351.143554688 284.967773438 l 1
 507.12109375 161.829101562 l 1
 660.953125 283.278320312 l 1
 660.953125 524.044921875 l 1
 507.12109375 645.490234375 l 1
 354.61328125 525.092773438 l 1
 358.9375 519.615234375 l 1
 507.12109375 636.598632812 l 1
 653.974609375 520.663085938 l 1
 653.974609375 407.15234375 l 0
 653.974609375 405.756835938 657.463867188 403.662109375 657.463867188 403.662109375 c 2
EndSplineSet
Validated: 37
EndChar

StartChar: e
Encoding: 101 101 1
Width: 1000
VWidth: 0
HStem: 402.964 1.39551<0.698242 999.301> 404.539 1.39648<0.698242 999.301>
VStem: 355.892 1.39844<284.635 521.799> 505.383 1.39551<8.02051 165.944 167.723 799.302> 506.423 1.39551<8.02051 165.944 167.723 799.302>
LayerCount: 2
Fore
SplineSet
658.732421875 283.23828125 m 1xe0
 658.27734375 523.194335938 l 1
 355.891601562 523.194335938 l 1
 356.348632812 283.23828125 l 1
 658.732421875 283.23828125 l 1xe0
656.883789062 521.798828125 m 1
 657.333984375 284.634765625 l 1
 357.741210938 284.634765625 l 1
 357.290039062 521.798828125 l 1
 656.883789062 521.798828125 l 1
507.120117188 641.932617188 m 1
 205.303710938 403.661132812 l 1
 507.046875 165.944335938 l 1
 808.934570312 404.641601562 l 1
 507.120117188 641.932617188 l 1
207.557617188 403.662109375 m 1
 507.12109375 640.15625 l 1
 806.680664062 404.638671875 l 1
 507.044921875 167.72265625 l 1
 207.557617188 403.662109375 l 1
507.125976562 800.192382812 m 1
 -0.435546875 403.662109375 l 1
 506.1875 7.12890625 l 1
 1000.41601562 405.239257812 l 1
 507.125976562 800.192382812 l 1
1.830078125 403.661132812 m 1
 507.115234375 798.412109375 l 1
 998.186523438 405.235351562 l 1
 506.17578125 8.9111328125 l 1
 1.830078125 403.661132812 l 1
658.033203125 283.936523438 m 1
 657.625 283.370117188 l 1
 658.2109375 282.948242188 362.5625 516.615234375 356.590820312 522.497070312 c 2
 356.17578125 523.057617188 l 1
 355.420898438 522.499023438 356.041992188 522.049804688 356.041992188 522.049804688 c 0
 358.651367188 518.5234375 656.161132812 284.52734375 657.595703125 283.392578125 c 0
 658.688476562 282.524414062 658.033203125 283.936523438 658.033203125 283.936523438 c 1
356.342773438 285.515625 m 1
 357.208007812 284.420898438 l 1
 658.013671875 521.94921875 l 1
 657.1484375 523.044921875 l 1
 356.342773438 285.515625 l 1
507.818359375 799.301757812 m 1xe8
 506.422851562 799.302734375 l 1xe8
 505.3828125 8.0205078125 l 1
 506.778320312 8.0185546875 l 1xf0
 507.818359375 799.301757812 l 1xe8
999.302734375 404.5390625 m 1
 999.30078125 405.935546875 l 1
 0.6962890625 404.359375 l 1
 0.6982421875 402.963867188 l 1
 999.302734375 404.5390625 l 1
509.283203125 638.30859375 m 1
 504.958984375 643.786132812 l 1
 351.145507812 522.35546875 l 1
 501.489257812 403.663085938 l 1
 351.19140625 285.005859375 l 1
 500.965820312 163.565429688 l 1
 505.361328125 168.986328125 l 1
 362.361328125 284.93359375 l 1
 512.751953125 403.663085938 l 1
 362.408203125 522.35546875 l 1
 509.283203125 638.30859375 l 1
EndSplineSet
Validated: 37
EndChar

StartChar: k
Encoding: 107 107 2
Width: 1000
VWidth: 0
HStem: 402.964 1.39551<0.698242 999.301> 404.539 1.39648<0.698242 999.301>
VStem: 353.287 6.97852<284.635 521.799> 505.383 1.39551<8.02051 799.302> 506.423 1.39551<8.02051 799.302>
LayerCount: 2
Fore
SplineSet
658.732421875 283.23828125 m 1xe0
 658.27734375 523.194335938 l 1
 355.891601562 523.194335938 l 1
 356.348632812 283.23828125 l 1
 658.732421875 283.23828125 l 1xe0
656.883789062 521.798828125 m 1
 657.333984375 284.634765625 l 1
 357.741210938 284.634765625 l 1
 357.290039062 521.798828125 l 1
 656.883789062 521.798828125 l 1
507.120117188 641.932617188 m 1
 205.303710938 403.661132812 l 1
 507.046875 165.944335938 l 1
 808.934570312 404.641601562 l 1
 507.120117188 641.932617188 l 1
207.557617188 403.662109375 m 1
 507.12109375 640.15625 l 1
 806.680664062 404.638671875 l 1
 507.044921875 167.72265625 l 1
 207.557617188 403.662109375 l 1
507.125976562 800.192382812 m 1
 -0.435546875 403.662109375 l 1
 506.1875 7.12890625 l 1
 1000.41601562 405.239257812 l 1
 507.125976562 800.192382812 l 1
1.830078125 403.661132812 m 1
 507.115234375 798.412109375 l 1
 998.186523438 405.235351562 l 1
 506.17578125 8.9111328125 l 1
 1.830078125 403.661132812 l 1
658.033203125 283.936523438 m 1
 657.625 283.370117188 l 1
 658.2109375 282.948242188 362.5625 516.615234375 356.590820312 522.497070312 c 2
 356.17578125 523.057617188 l 1
 355.420898438 522.499023438 356.041992188 522.049804688 356.041992188 522.049804688 c 0
 358.651367188 518.5234375 656.161132812 284.52734375 657.595703125 283.392578125 c 0
 658.688476562 282.524414062 658.033203125 283.936523438 658.033203125 283.936523438 c 1
356.342773438 285.515625 m 1
 357.208007812 284.420898438 l 1
 658.013671875 521.94921875 l 1
 657.1484375 523.044921875 l 1
 356.342773438 285.515625 l 1
507.818359375 799.301757812 m 1xe8
 506.422851562 799.302734375 l 1xe8
 505.3828125 8.0205078125 l 1
 506.778320312 8.0185546875 l 1xf0
 507.818359375 799.301757812 l 1xe8
999.302734375 404.5390625 m 1
 999.30078125 405.935546875 l 1
 0.6962890625 404.359375 l 1
 0.6982421875 402.963867188 l 1
 999.302734375 404.5390625 l 1
509.283203125 638.30859375 m 1
 504.958984375 643.786132812 l 1
 353.287109375 524.045898438 l 1
 353.287109375 283.278320312 l 1
 504.958984375 163.537109375 l 1
 509.283203125 169.014648438 l 1
 360.265625 286.66015625 l 1
 360.265625 520.6640625 l 1
 509.283203125 638.30859375 l 1
659.625976562 519.616210938 m 1
 655.301757812 525.09375 l 1
 354.614257812 287.708007812 l 1
 358.938476562 282.23046875 l 1
 659.625976562 519.616210938 l 1
358.938476562 525.09375 m 1
 354.614257812 519.616210938 l 1
 655.301757812 282.23046875 l 1
 659.625976562 287.708007812 l 1
 358.938476562 525.09375 l 1
EndSplineSet
Validated: 37
EndChar

StartChar: w
Encoding: 119 119 3
Width: 1000
VWidth: 0
HStem: 402.964 1.39551<0.698242 999.301> 404.539 1.39648<0.698242 999.301>
VStem: 355.892 1.39844<284.635 521.799> 505.383 1.39551<8.02051 167.723 640.156 799.302> 506.423 1.39551<8.02051 167.723 640.156 799.302> 653.977 6.97852<284.635 521.799>
LayerCount: 2
Fore
SplineSet
658.732421875 283.23828125 m 1xe4
 658.27734375 523.194335938 l 1
 355.891601562 523.194335938 l 1
 356.348632812 283.23828125 l 1
 658.732421875 283.23828125 l 1xe4
656.883789062 521.798828125 m 1
 657.333984375 284.634765625 l 1
 357.741210938 284.634765625 l 1
 357.290039062 521.798828125 l 1
 656.883789062 521.798828125 l 1
507.120117188 641.932617188 m 1
 205.303710938 403.661132812 l 1
 507.046875 165.944335938 l 1
 808.934570312 404.641601562 l 1
 507.120117188 641.932617188 l 1
207.557617188 403.662109375 m 1
 507.12109375 640.15625 l 1
 806.680664062 404.638671875 l 1
 507.044921875 167.72265625 l 1
 207.557617188 403.662109375 l 1
507.125976562 800.192382812 m 1
 -0.435546875 403.662109375 l 1
 506.1875 7.12890625 l 1
 1000.41601562 405.239257812 l 1
 507.125976562 800.192382812 l 1
1.830078125 403.661132812 m 1
 507.115234375 798.412109375 l 1
 998.186523438 405.235351562 l 1
 506.17578125 8.9111328125 l 1
 1.830078125 403.661132812 l 1
658.033203125 283.936523438 m 1
 657.625 283.370117188 l 1
 658.2109375 282.948242188 362.5625 516.615234375 356.590820312 522.497070312 c 2
 356.17578125 523.057617188 l 1
 355.420898438 522.499023438 356.041992188 522.049804688 356.041992188 522.049804688 c 0
 358.651367188 518.5234375 656.161132812 284.52734375 657.595703125 283.392578125 c 0
 658.688476562 282.524414062 658.033203125 283.936523438 658.033203125 283.936523438 c 1
356.342773438 285.515625 m 1
 357.208007812 284.420898438 l 1
 658.013671875 521.94921875 l 1
 657.1484375 523.044921875 l 1
 356.342773438 285.515625 l 1
507.818359375 799.301757812 m 1xec
 506.422851562 799.302734375 l 1xec
 505.3828125 8.0205078125 l 1
 506.778320312 8.0185546875 l 1xf4
 507.818359375 799.301757812 l 1xec
999.302734375 404.5390625 m 1
 999.30078125 405.935546875 l 1
 0.6962890625 404.359375 l 1
 0.6982421875 402.963867188 l 1
 999.302734375 404.5390625 l 1
530.859375 150.450195312 m 1025
507.529296875 176.213867188 m 1
 505.700195312 160.670898438 l 1
 506.790039062 161.54296875 505.559570312 160.55859375 506.649414062 161.430664062 c 1
 529.08203125 179.377929688 l 0
 660.955078125 283.276367188 l 1
 660.955078125 539.58984375 l 1
 507.529296875 176.213867188 l 1
509.889648438 163.864257812 m 1
 353.287109375 539.58984375 l 1
 353.287109375 283.278320312 l 1
 508.797851562 160.505859375 l 1
 509.893554688 159.641601562 507.458007812 161.564453125 508.553710938 160.69921875 c 1
 509.889648438 163.864257812 l 1
498.624023438 177.4296875 m 1
 360.265625 286.66015625 l 1
 360.265625 505.120117188 l 1
 498.624023438 177.4296875 l 1
515.689453125 177.600585938 m 1
 653.9765625 505.120117188 l 1
 653.9765625 286.663085938 l 1
 524.72265625 184.827148438 l 0
 515.689453125 177.600585938 l 1
EndSplineSet
Validated: 37
EndChar

StartChar: o
Encoding: 111 111 4
Width: 1000
VWidth: 0
HStem: 402.964 1.39551<0.698242 999.301> 404.539 1.39648<0.698242 999.301>
VStem: 355.892 1.39844<284.635 521.799> 505.383 1.39551<8.02051 799.302> 506.423 1.39551<8.02051 799.302> 653.975 6.97852<284.635 521.799>
LayerCount: 2
Fore
SplineSet
658.732421875 283.23828125 m 1xe4
 658.27734375 523.194335938 l 1
 355.891601562 523.194335938 l 1
 356.348632812 283.23828125 l 1
 658.732421875 283.23828125 l 1xe4
656.883789062 521.798828125 m 1
 657.333984375 284.634765625 l 1
 357.741210938 284.634765625 l 1
 357.290039062 521.798828125 l 1
 656.883789062 521.798828125 l 1
507.120117188 641.932617188 m 1
 205.303710938 403.661132812 l 1
 507.046875 165.944335938 l 1
 808.934570312 404.641601562 l 1
 507.120117188 641.932617188 l 1
207.557617188 403.662109375 m 1
 507.12109375 640.15625 l 1
 806.680664062 404.638671875 l 1
 507.044921875 167.72265625 l 1
 207.557617188 403.662109375 l 1
507.125976562 800.192382812 m 1
 -0.435546875 403.662109375 l 1
 506.1875 7.12890625 l 1
 1000.41601562 405.239257812 l 1
 507.125976562 800.192382812 l 1
1.830078125 403.661132812 m 1
 507.115234375 798.412109375 l 1
 998.186523438 405.235351562 l 1
 506.17578125 8.9111328125 l 1
 1.830078125 403.661132812 l 1
658.033203125 283.936523438 m 1
 657.625 283.370117188 l 1
 658.2109375 282.948242188 362.5625 516.615234375 356.590820312 522.497070312 c 2
 356.17578125 523.057617188 l 1
 355.420898438 522.499023438 356.041992188 522.049804688 356.041992188 522.049804688 c 0
 358.651367188 518.5234375 656.161132812 284.52734375 657.595703125 283.392578125 c 0
 658.688476562 282.524414062 658.033203125 283.936523438 658.033203125 283.936523438 c 1
658.013671875 521.94921875 m 1
 657.1484375 523.044921875 l 1
 356.342773438 285.515625 l 1
 357.208007812 284.420898438 l 1
 658.013671875 521.94921875 l 1
507.818359375 799.301757812 m 1xec
 506.422851562 799.302734375 l 1xec
 505.3828125 8.0205078125 l 1
 506.778320312 8.0185546875 l 1xf4
 507.818359375 799.301757812 l 1xec
999.302734375 404.5390625 m 1
 999.30078125 405.935546875 l 1
 0.6962890625 404.359375 l 1
 0.6982421875 402.963867188 l 1
 999.302734375 404.5390625 l 1
507.12109375 170.721679688 m 1
 360.265625 286.66015625 l 1
 360.265625 520.6640625 l 1
 507.12109375 636.6015625 l 1
 653.974609375 520.6640625 l 1
 653.974609375 286.66015625 l 1
 507.12109375 170.721679688 l 1
507.12109375 161.830078125 m 1
 660.953125 283.278320312 l 1
 660.953125 524.045898438 l 1
 507.12109375 645.493164062 l 1
 353.287109375 524.045898438 l 1
 353.287109375 283.278320312 l 1
 507.12109375 161.830078125 l 1
EndSplineSet
Validated: 37
EndChar

StartChar: c
Encoding: 99 99 5
Width: 1000
VWidth: 0
HStem: 402.964 1.39551<0.698242 999.301> 404.539 1.39648<0.698242 999.301>
VStem: 355.892 1.39844<284.635 521.799> 505.383 1.39551<8.02051 799.302> 506.423 1.39551<8.02051 799.302>
LayerCount: 2
Fore
SplineSet
658.732421875 283.23828125 m 1xe0
 658.27734375 523.194335938 l 1
 355.891601562 523.194335938 l 1
 356.348632812 283.23828125 l 1
 658.732421875 283.23828125 l 1xe0
656.883789062 521.798828125 m 1
 657.333984375 284.634765625 l 1
 357.741210938 284.634765625 l 1
 357.290039062 521.798828125 l 1
 656.883789062 521.798828125 l 1
507.120117188 641.932617188 m 1
 205.303710938 403.661132812 l 1
 507.046875 165.944335938 l 1
 808.934570312 404.641601562 l 1
 507.120117188 641.932617188 l 1
207.557617188 403.662109375 m 1
 507.12109375 640.15625 l 1
 806.680664062 404.638671875 l 1
 507.044921875 167.72265625 l 1
 207.557617188 403.662109375 l 1
507.125976562 800.192382812 m 1
 -0.435546875 403.662109375 l 1
 506.1875 7.12890625 l 1
 1000.41601562 405.239257812 l 1
 507.125976562 800.192382812 l 1
1.830078125 403.661132812 m 1
 507.115234375 798.412109375 l 1
 998.186523438 405.235351562 l 1
 506.17578125 8.9111328125 l 1
 1.830078125 403.661132812 l 1
658.033203125 283.936523438 m 1
 657.625 283.370117188 l 1
 658.2109375 282.948242188 362.5625 516.615234375 356.590820312 522.497070312 c 2
 356.17578125 523.057617188 l 1
 355.420898438 522.499023438 356.041992188 522.049804688 356.041992188 522.049804688 c 0
 358.651367188 518.5234375 656.161132812 284.52734375 657.595703125 283.392578125 c 0
 658.688476562 282.524414062 658.033203125 283.936523438 658.033203125 283.936523438 c 1
356.342773438 285.515625 m 1
 357.208007812 284.420898438 l 1
 658.013671875 521.94921875 l 1
 657.1484375 523.044921875 l 1
 356.342773438 285.515625 l 1
507.818359375 799.301757812 m 1xe8
 506.422851562 799.302734375 l 1xe8
 505.3828125 8.0205078125 l 1
 506.778320312 8.0185546875 l 1xf0
 507.818359375 799.301757812 l 1xe8
999.302734375 404.5390625 m 1
 999.30078125 405.935546875 l 1
 0.6962890625 404.359375 l 1
 0.6982421875 402.963867188 l 1
 999.302734375 404.5390625 l 1
507.120117188 641.046875 m 1024
655.303710938 519.616210938 m 1
 659.627929688 525.09375 l 1
 507.12109375 645.493164062 l 1
 353.287109375 524.045898438 l 1
 353.287109375 283.278320312 l 1
 507.12109375 161.830078125 l 1
 659.627929688 282.23046875 l 1
 655.303710938 287.708007812 l 1
 507.12109375 170.721679688 l 1
 360.265625 286.66015625 l 1
 360.265625 520.6640625 l 1
 507.12109375 636.6015625 l 1
 655.303710938 519.616210938 l 1
EndSplineSet
Validated: 37
EndChar

StartChar: d
Encoding: 100 100 6
Width: 1000
VWidth: 0
HStem: 402.964 1.39551<0.698242 999.301> 404.539 1.39648<0.698242 999.301>
VStem: 355.892 1.39844<284.635 521.799> 505.383 1.39551<8.02051 799.302> 506.423 1.39551<8.02051 167.723 174.629 631.718 640.156 799.302> 653.977 6.97852<284.635 287.207 290.644 524.521>
LayerCount: 2
Fore
SplineSet
658.732421875 283.23828125 m 1xe4
 658.27734375 523.194335938 l 1
 355.891601562 523.194335938 l 1
 356.348632812 283.23828125 l 1
 658.732421875 283.23828125 l 1xe4
656.883789062 521.798828125 m 1
 657.333984375 284.634765625 l 1
 357.741210938 284.634765625 l 1
 357.290039062 521.798828125 l 1
 656.883789062 521.798828125 l 1
507.120117188 641.932617188 m 1
 205.303710938 403.661132812 l 1
 507.046875 165.944335938 l 1
 808.934570312 404.641601562 l 1
 507.120117188 641.932617188 l 1
207.557617188 403.662109375 m 1
 507.12109375 640.15625 l 1
 806.680664062 404.638671875 l 1
 507.044921875 167.72265625 l 1
 207.557617188 403.662109375 l 1
507.125976562 800.192382812 m 1
 -0.435546875 403.662109375 l 1
 506.1875 7.12890625 l 1
 1000.41601562 405.239257812 l 1
 507.125976562 800.192382812 l 1
1.830078125 403.661132812 m 1
 507.115234375 798.412109375 l 1
 998.186523438 405.235351562 l 1
 506.17578125 8.9111328125 l 1
 1.830078125 403.661132812 l 1
658.033203125 283.936523438 m 1
 657.625 283.370117188 l 1
 658.2109375 282.948242188 362.5625 516.615234375 356.590820312 522.497070312 c 2
 356.17578125 523.057617188 l 1
 355.420898438 522.499023438 356.041992188 522.049804688 356.041992188 522.049804688 c 0
 358.651367188 518.5234375 656.161132812 284.52734375 657.595703125 283.392578125 c 0
 658.688476562 282.524414062 658.033203125 283.936523438 658.033203125 283.936523438 c 1
658.013671875 521.94921875 m 1
 657.1484375 523.044921875 l 1
 356.342773438 285.515625 l 1
 357.208007812 284.420898438 l 1
 658.013671875 521.94921875 l 1
507.818359375 799.301757812 m 1xec
 506.422851562 799.302734375 l 1xec
 505.3828125 8.0205078125 l 1
 506.778320312 8.0185546875 l 1xf4
 507.818359375 799.301757812 l 1xec
999.302734375 404.5390625 m 1
 999.30078125 405.935546875 l 1
 0.6962890625 404.359375 l 1
 0.6982421875 402.963867188 l 1
 999.302734375 404.5390625 l 1
348.545898438 283.841796875 m 1
 503.174804688 165.836914062 l 1
 660.955078125 287.20703125 l 1
 660.955078125 528.100585938 l 1
 501.666015625 642.462890625 l 1
 348.545898438 283.841796875 l 1
503.158203125 174.62890625 m 1
 357.096679688 286.094726562 l 1
 504.666992188 631.717773438 l 1
 653.9765625 524.520507812 l 1
 653.9765625 290.643554688 l 1
 503.158203125 174.62890625 l 1
EndSplineSet
Validated: 37
EndChar

StartChar: g
Encoding: 103 103 7
Width: 1000
VWidth: 0
HStem: 402.964 1.39551<0.698242 999.301> 404.539 1.39648<0.698242 999.301>
VStem: 355.892 1.39844<284.635 521.799> 505.383 1.39551<8.02051 799.302> 506.423 1.39551<8.02051 799.302>
LayerCount: 2
Fore
SplineSet
658.732421875 283.23828125 m 1xe0
 658.27734375 523.194335938 l 1
 355.891601562 523.194335938 l 1
 356.348632812 283.23828125 l 1
 658.732421875 283.23828125 l 1xe0
656.883789062 521.798828125 m 1
 657.333984375 284.634765625 l 1
 357.741210938 284.634765625 l 1
 357.290039062 521.798828125 l 1
 656.883789062 521.798828125 l 1
507.120117188 641.932617188 m 1
 205.303710938 403.661132812 l 1
 507.046875 165.944335938 l 1
 808.934570312 404.641601562 l 1
 507.120117188 641.932617188 l 1
207.557617188 403.662109375 m 1
 507.12109375 640.15625 l 1
 806.680664062 404.638671875 l 1
 507.044921875 167.72265625 l 1
 207.557617188 403.662109375 l 1
507.125976562 800.192382812 m 1
 -0.435546875 403.662109375 l 1
 506.1875 7.12890625 l 1
 1000.41601562 405.239257812 l 1
 507.125976562 800.192382812 l 1
1.830078125 403.661132812 m 1
 507.115234375 798.412109375 l 1
 998.186523438 405.235351562 l 1
 506.17578125 8.9111328125 l 1
 1.830078125 403.661132812 l 1
658.033203125 283.936523438 m 1
 657.625 283.370117188 l 1
 658.2109375 282.948242188 362.5625 516.615234375 356.590820312 522.497070312 c 2
 356.17578125 523.057617188 l 1
 355.420898438 522.499023438 356.041992188 522.049804688 356.041992188 522.049804688 c 0
 358.651367188 518.5234375 656.161132812 284.52734375 657.595703125 283.392578125 c 0
 658.688476562 282.524414062 658.033203125 283.936523438 658.033203125 283.936523438 c 1
658.013671875 521.94921875 m 1
 657.1484375 523.044921875 l 1
 356.342773438 285.515625 l 1
 357.208007812 284.420898438 l 1
 658.013671875 521.94921875 l 1
507.818359375 799.301757812 m 1xe8
 506.422851562 799.302734375 l 1xe8
 505.3828125 8.0205078125 l 1
 506.778320312 8.0185546875 l 1xf0
 507.818359375 799.301757812 l 1xe8
999.302734375 404.5390625 m 1
 999.30078125 405.935546875 l 1
 0.6962890625 404.359375 l 1
 0.6982421875 402.963867188 l 1
 999.302734375 404.5390625 l 1
651.311523438 519.64453125 m 1
 655.70703125 525.065429688 l 1
 507.149414062 645.515625 l 1
 353.287109375 524.045898438 l 1
 353.287109375 283.306640625 l 1
 503.106445312 161.830078125 l 1
 663.142578125 284.93359375 l 1
 509.283203125 406.401367188 l 1
 504.958984375 400.923828125 l 1
 651.790039062 285.004882812 l 1
 503.220703125 170.72265625 l 1
 360.265625 286.6328125 l 1
 360.265625 520.6640625 l 1
 507.091796875 636.578125 l 1
 651.311523438 519.64453125 l 1
EndSplineSet
Validated: 37
EndChar

StartChar: f
Encoding: 102 102 8
Width: 1000
VWidth: 0
HStem: 402.964 1.39551<0.698242 999.301> 404.539 1.39648<0.698242 999.301>
VStem: 353.287 6.97852<284.635 285.516 288.927 521.799> 505.383 1.39551<8.02051 799.302> 506.423 1.39551<8.02051 799.302>
LayerCount: 2
Fore
SplineSet
658.732421875 283.23828125 m 1xe0
 658.27734375 523.194335938 l 1
 355.891601562 523.194335938 l 1
 356.348632812 283.23828125 l 1
 658.732421875 283.23828125 l 1xe0
656.883789062 521.798828125 m 1
 657.333984375 284.634765625 l 1
 357.741210938 284.634765625 l 1
 357.290039062 521.798828125 l 1
 656.883789062 521.798828125 l 1
507.120117188 641.932617188 m 1
 205.303710938 403.661132812 l 1
 507.046875 165.944335938 l 1
 808.934570312 404.641601562 l 1
 507.120117188 641.932617188 l 1
207.557617188 403.662109375 m 1
 507.12109375 640.15625 l 1
 806.680664062 404.638671875 l 1
 507.044921875 167.72265625 l 1
 207.557617188 403.662109375 l 1
507.125976562 800.192382812 m 1
 -0.435546875 403.662109375 l 1
 506.1875 7.12890625 l 1
 1000.41601562 405.239257812 l 1
 507.125976562 800.192382812 l 1
1.830078125 403.661132812 m 1
 507.115234375 798.412109375 l 1
 998.186523438 405.235351562 l 1
 506.17578125 8.9111328125 l 1
 1.830078125 403.661132812 l 1
658.033203125 283.936523438 m 1
 657.625 283.370117188 l 1
 658.2109375 282.948242188 362.5625 516.615234375 356.590820312 522.497070312 c 2
 356.17578125 523.057617188 l 1
 355.420898438 522.499023438 356.041992188 522.049804688 356.041992188 522.049804688 c 0
 358.651367188 518.5234375 656.161132812 284.52734375 657.595703125 283.392578125 c 0
 658.688476562 282.524414062 658.033203125 283.936523438 658.033203125 283.936523438 c 1
658.013671875 521.94921875 m 1
 657.1484375 523.044921875 l 1
 356.342773438 285.515625 l 1
 357.208007812 284.420898438 l 1
 658.013671875 521.94921875 l 1
507.818359375 799.301757812 m 1xe8
 506.422851562 799.302734375 l 1xe8
 505.3828125 8.0205078125 l 1
 506.778320312 8.0185546875 l 1xf0
 507.818359375 799.301757812 l 1xe8
999.302734375 404.5390625 m 1
 999.30078125 405.935546875 l 1
 0.6962890625 404.359375 l 1
 0.6982421875 402.963867188 l 1
 999.302734375 404.5390625 l 1
507.12109375 403.663085938 m 1025
655.303710938 523.573242188 m 1
 659.627929688 529.05078125 l 1
 507.084960938 649.477539062 l 1
 353.287109375 524.01171875 l 1
 353.287109375 288.926757812 l 1
 360.265625 288.926757812 l 1
 360.265625 520.698242188 l 1
 507.15625 640.530273438 l 1
 655.303710938 523.573242188 l 1
504.958984375 400.923828125 m 1
 509.283203125 406.401367188 l 1
 358.938476562 525.09375 l 1
 354.614257812 519.616210938 l 1
 504.958984375 400.923828125 l 1
EndSplineSet
Validated: 37
EndChar

StartChar: x
Encoding: 120 120 9
Width: 1000
VWidth: 0
HStem: 402.964 1.39551<0.698242 999.301> 404.539 1.39648<0.698242 999.301>
VStem: 355.892 1.39844<284.635 521.799> 505.383 1.39551<8.02051 799.302> 506.423 1.39551<8.02051 799.302>
LayerCount: 2
Fore
SplineSet
658.732421875 283.23828125 m 1xe0
 658.27734375 523.194335938 l 1
 355.891601562 523.194335938 l 1
 356.348632812 283.23828125 l 1
 658.732421875 283.23828125 l 1xe0
656.883789062 521.798828125 m 1
 657.333984375 284.634765625 l 1
 357.741210938 284.634765625 l 1
 357.290039062 521.798828125 l 1
 656.883789062 521.798828125 l 1
507.120117188 641.932617188 m 1
 205.303710938 403.661132812 l 1
 507.046875 165.944335938 l 1
 808.934570312 404.641601562 l 1
 507.120117188 641.932617188 l 1
207.557617188 403.662109375 m 1
 507.12109375 640.15625 l 1
 806.680664062 404.638671875 l 1
 507.044921875 167.72265625 l 1
 207.557617188 403.662109375 l 1
507.125976562 800.192382812 m 1
 -0.435546875 403.662109375 l 1
 506.1875 7.12890625 l 1
 1000.41601562 405.239257812 l 1
 507.125976562 800.192382812 l 1
1.830078125 403.661132812 m 1
 507.115234375 798.412109375 l 1
 998.186523438 405.235351562 l 1
 506.17578125 8.9111328125 l 1
 1.830078125 403.661132812 l 1
658.033203125 283.936523438 m 1
 657.625 283.370117188 l 1
 658.2109375 282.948242188 362.5625 516.615234375 356.590820312 522.497070312 c 2
 356.17578125 523.057617188 l 1
 355.420898438 522.499023438 356.041992188 522.049804688 356.041992188 522.049804688 c 0
 358.651367188 518.5234375 656.161132812 284.52734375 657.595703125 283.392578125 c 0
 658.688476562 282.524414062 658.033203125 283.936523438 658.033203125 283.936523438 c 1
658.013671875 521.94921875 m 1
 657.1484375 523.044921875 l 1
 356.342773438 285.515625 l 1
 357.208007812 284.420898438 l 1
 658.013671875 521.94921875 l 1
507.818359375 799.301757812 m 1xe8
 506.422851562 799.302734375 l 1xe8
 505.3828125 8.0205078125 l 1
 506.778320312 8.0185546875 l 1xf0
 507.818359375 799.301757812 l 1xe8
999.302734375 404.5390625 m 1
 999.30078125 405.935546875 l 1
 0.6962890625 404.359375 l 1
 0.6982421875 402.963867188 l 1
 999.302734375 404.5390625 l 1
513.396484375 403.154296875 m 1
 663.09765625 522.35546875 l 1
 507.12109375 645.493164062 l 1
 351.145507812 522.35546875 l 1
 500.846679688 404.170898438 l 1
 354.614257812 287.708007812 l 0
 351.145507812 284.969726562 l 1
 507.12109375 161.830078125 l 1
 663.09765625 284.969726562 l 1
 513.396484375 403.154296875 l 1
507.12109375 408.108398438 m 1
 362.408203125 522.35546875 l 1
 507.12109375 636.6015625 l 1
 651.834960938 522.35546875 l 1
 507.12109375 408.108398438 l 1
507.12109375 399.216796875 m 1
 651.834960938 284.969726562 l 1
 507.12109375 170.721679688 l 1
 362.407226562 284.969726562 l 1
 507.12109375 399.216796875 l 1
EndSplineSet
Validated: 37
EndChar

StartChar: h
Encoding: 104 104 10
Width: 1000
VWidth: 0
HStem: 402.964 1.39551<0.698242 999.301> 404.539 1.39648<0.698242 999.301>
VStem: 355.892 1.39844<284.635 521.799> 505.383 1.39551<8.02051 799.302> 506.423 1.39551<8.02051 799.302> 653.977 6.97852<292.17 521.799>
LayerCount: 2
Fore
SplineSet
658.732421875 283.23828125 m 1xe4
 658.27734375 523.194335938 l 1
 355.891601562 523.194335938 l 1
 356.348632812 283.23828125 l 1
 658.732421875 283.23828125 l 1xe4
656.883789062 521.798828125 m 1
 657.333984375 284.634765625 l 1
 357.741210938 284.634765625 l 1
 357.290039062 521.798828125 l 1
 656.883789062 521.798828125 l 1
507.120117188 641.932617188 m 1
 205.303710938 403.661132812 l 1
 507.046875 165.944335938 l 1
 808.934570312 404.641601562 l 1
 507.120117188 641.932617188 l 1
207.557617188 403.662109375 m 1
 507.12109375 640.15625 l 1
 806.680664062 404.638671875 l 1
 507.044921875 167.72265625 l 1
 207.557617188 403.662109375 l 1
507.125976562 800.192382812 m 1
 -0.435546875 403.662109375 l 1
 506.1875 7.12890625 l 1
 1000.41601562 405.239257812 l 1
 507.125976562 800.192382812 l 1
1.830078125 403.661132812 m 1
 507.115234375 798.412109375 l 1
 998.186523438 405.235351562 l 1
 506.17578125 8.9111328125 l 1
 1.830078125 403.661132812 l 1
658.033203125 283.936523438 m 1
 657.625 283.370117188 l 1
 658.2109375 282.948242188 362.5625 516.615234375 356.590820312 522.497070312 c 2
 356.17578125 523.057617188 l 1
 355.420898438 522.499023438 356.041992188 522.049804688 356.041992188 522.049804688 c 0
 358.651367188 518.5234375 656.161132812 284.52734375 657.595703125 283.392578125 c 0
 658.688476562 282.524414062 658.033203125 283.936523438 658.033203125 283.936523438 c 1
356.342773438 285.515625 m 1
 357.208007812 284.420898438 l 1
 658.013671875 521.94921875 l 1
 657.1484375 523.044921875 l 1
 356.342773438 285.515625 l 1
507.818359375 799.301757812 m 1xec
 506.422851562 799.302734375 l 1xec
 505.3828125 8.0205078125 l 1
 506.778320312 8.0185546875 l 1xf4
 507.818359375 799.301757812 l 1xec
999.302734375 404.5390625 m 1
 999.30078125 405.935546875 l 1
 0.6962890625 404.359375 l 1
 0.6982421875 402.963867188 l 1
 999.302734375 404.5390625 l 1
506.999023438 399.120117188 m 1
 660.955078125 277.76953125 l 1
 660.955078125 529.555664062 l 1
 507.244140625 408.205078125 l 0
 506.1484375 407.33984375 506.999023438 399.120117188 506.999023438 399.120117188 c 1
507.244140625 408.205078125 m 1
 353.287109375 529.555664062 l 1
 353.287109375 277.76953125 l 1
 506.999023438 399.120117188 l 0
 507.244140625 408.205078125 l 1
501.490234375 403.662109375 m 1
 360.265625 292.169921875 l 1
 360.265625 515.154296875 l 1
 501.490234375 403.662109375 l 1
512.752929688 403.662109375 m 1
 653.9765625 515.154296875 l 1
 653.9765625 292.169921875 l 1
 512.752929688 403.662109375 l 1
EndSplineSet
Validated: 524325
EndChar

StartChar: i
Encoding: 105 105 11
Width: 1000
VWidth: 0
HStem: 402.964 1.39551<0.698242 999.301> 404.539 1.39648<0.698242 999.301> 518.866 4.32812<355.892 503.631>
VStem: 355.892 1.39844<284.635 521.799> 505.383 1.39551<8.02051 799.302> 506.423 1.39551<8.02051 167.723 177.285 799.302>
LayerCount: 2
Fore
SplineSet
658.732421875 283.23828125 m 1xf0
 658.27734375 523.194335938 l 1
 355.891601562 523.194335938 l 1
 356.348632812 283.23828125 l 1
 658.732421875 283.23828125 l 1xf0
656.883789062 521.798828125 m 1
 657.333984375 284.634765625 l 1
 357.741210938 284.634765625 l 1
 357.290039062 521.798828125 l 1
 656.883789062 521.798828125 l 1
507.120117188 641.932617188 m 1
 205.303710938 403.661132812 l 1
 507.046875 165.944335938 l 1
 808.934570312 404.641601562 l 1
 507.120117188 641.932617188 l 1
207.557617188 403.662109375 m 1
 507.12109375 640.15625 l 1
 806.680664062 404.638671875 l 1
 507.044921875 167.72265625 l 1
 207.557617188 403.662109375 l 1
507.125976562 800.192382812 m 1
 -0.435546875 403.662109375 l 1
 506.1875 7.12890625 l 1
 1000.41601562 405.239257812 l 1
 507.125976562 800.192382812 l 1
1.830078125 403.661132812 m 1
 507.115234375 798.412109375 l 1
 998.186523438 405.235351562 l 1
 506.17578125 8.9111328125 l 1
 1.830078125 403.661132812 l 1
658.033203125 283.936523438 m 1
 657.625 283.370117188 l 1
 658.2109375 282.948242188 362.5625 516.615234375 356.590820312 522.497070312 c 2
 356.17578125 523.057617188 l 1
 355.420898438 522.499023438 356.041992188 522.049804688 356.041992188 522.049804688 c 0
 358.651367188 518.5234375 656.161132812 284.52734375 657.595703125 283.392578125 c 0
 658.688476562 282.524414062 658.033203125 283.936523438 658.033203125 283.936523438 c 1
356.342773438 285.515625 m 1
 357.208007812 284.420898438 l 1
 658.013671875 521.94921875 l 1
 657.1484375 523.044921875 l 1
 356.342773438 285.515625 l 1
507.818359375 799.301757812 m 1xf4
 506.422851562 799.302734375 l 1xf4
 505.3828125 8.0205078125 l 1
 506.778320312 8.0185546875 l 1xf8
 507.818359375 799.301757812 l 1xf4
999.302734375 404.5390625 m 1
 999.30078125 405.935546875 l 1
 0.6962890625 404.359375 l 1
 0.6982421875 402.963867188 l 1
 999.302734375 404.5390625 l 1
352.819335938 525.844726562 m 1
 352.819335938 518.866210938 l 1
 503.630859375 518.866210938 l 1
 503.630859375 163.180664062 l 1
 659.583007812 282.1953125 l 1
 655.349609375 287.743164062 l 1
 510.610351562 177.28515625 l 1
 510.610351562 525.844726562 l 1
 352.819335938 525.844726562 l 1
EndSplineSet
Validated: 524325
EndChar

StartChar: j
Encoding: 106 106 12
Width: 1000
VWidth: 0
HStem: 402.964 1.39551<0.698242 999.301> 404.539 1.39648<0.698242 999.301> 521.799 0.556641<503.631 510.61>
VStem: 355.892 1.39844<284.635 521.799> 505.383 1.39551<8.02051 799.302> 506.423 1.39551<8.02051 799.302>
LayerCount: 2
Fore
SplineSet
658.732421875 283.23828125 m 1xf0
 658.27734375 523.194335938 l 1
 355.891601562 523.194335938 l 1
 356.348632812 283.23828125 l 1
 658.732421875 283.23828125 l 1xf0
656.883789062 521.798828125 m 1
 657.333984375 284.634765625 l 1
 357.741210938 284.634765625 l 1
 357.290039062 521.798828125 l 1
 656.883789062 521.798828125 l 1
507.120117188 641.932617188 m 1
 205.303710938 403.661132812 l 1
 507.046875 165.944335938 l 1
 808.934570312 404.641601562 l 1
 507.120117188 641.932617188 l 1
207.557617188 403.662109375 m 1
 507.12109375 640.15625 l 1
 806.680664062 404.638671875 l 1
 507.044921875 167.72265625 l 1
 207.557617188 403.662109375 l 1
507.125976562 800.192382812 m 1
 -0.435546875 403.662109375 l 1
 506.1875 7.12890625 l 1
 1000.41601562 405.239257812 l 1
 507.125976562 800.192382812 l 1
1.830078125 403.661132812 m 1
 507.115234375 798.412109375 l 1
 998.186523438 405.235351562 l 1
 506.17578125 8.9111328125 l 1
 1.830078125 403.661132812 l 1
658.033203125 283.936523438 m 1
 657.625 283.370117188 l 1
 658.2109375 282.948242188 362.5625 516.615234375 356.590820312 522.497070312 c 2
 356.17578125 523.057617188 l 1
 355.420898438 522.499023438 356.041992188 522.049804688 356.041992188 522.049804688 c 0
 358.651367188 518.5234375 656.161132812 284.52734375 657.595703125 283.392578125 c 0
 658.688476562 282.524414062 658.033203125 283.936523438 658.033203125 283.936523438 c 1
356.342773438 285.515625 m 1
 357.208007812 284.420898438 l 1
 658.013671875 521.94921875 l 1
 657.1484375 523.044921875 l 1
 356.342773438 285.515625 l 1
507.818359375 799.301757812 m 1xf4
 506.422851562 799.302734375 l 1xf4
 505.3828125 8.0205078125 l 1
 506.778320312 8.0185546875 l 1xf8
 507.818359375 799.301757812 l 1xf4
999.302734375 404.5390625 m 1
 999.30078125 405.935546875 l 1
 0.6962890625 404.359375 l 1
 0.6982421875 402.963867188 l 1
 999.302734375 404.5390625 l 1
507.12109375 403.662109375 m 1
 455.186523438 362.661132812 405.03125 327.510742188 354.614257812 287.708007812 c 0
 351.145507812 284.969726562 l 1
 510.610351562 159.076171875 l 1
 510.610351562 522.35546875 l 1
 503.630859375 522.35546875 l 1
 503.630859375 405.989257812 l 0
 507.12109375 403.662109375 l 1
503.630859375 396.4609375 m 1
 503.630859375 173.4765625 l 1
 362.407226562 284.969726562 l 1
 503.630859375 396.4609375 l 1
EndSplineSet
Validated: 524325
EndChar

StartChar: b
Encoding: 98 98 13
Width: 1000
VWidth: 0
HStem: 402.964 1.39551<0.699219 207.559 501.49 999.301> 404.539 1.39551<0.699219 207.559 501.49 999.301> 522.355 0.839844<355.892 360.266> 780.192 19.1113G<481.525 532.105> 780.192 19.1113G<481.525 532.105>
VStem: 353.287 1.32715<284.968 287.706 519.616 522.355> 505.384 1.39551<8.02051 640.156 641.933 799.302> 506.422 1.39551<8.02051 636.602 641.933 799.302>
LayerCount: 2
Fore
SplineSet
658.732421875 283.23828125 m 1xe4
 356.34765625 283.23828125 l 1
 355.891601562 523.1953125 l 1
 658.278320312 523.1953125 l 1
 658.732421875 283.23828125 l 1xe4
357.741210938 284.634765625 m 1
 657.333984375 284.634765625 l 1
 656.884765625 521.798828125 l 1
 357.290039062 521.798828125 l 1
 357.741210938 284.634765625 l 1
507.046875 165.9453125 m 1
 506.61328125 166.286132812 l 1
 205.3046875 403.661132812 l 1
 205.999023438 404.209960938 l 1
 507.120117188 641.932617188 l 1
 507.552734375 641.592773438 l 1
 808.93359375 404.642578125 l 1
 507.046875 165.9453125 l 1
207.55859375 403.663085938 m 1
 507.043945312 167.723632812 l 1
 806.6796875 404.639648438 l 1
 507.12109375 640.15625 l 1
 207.55859375 403.663085938 l 1
506.188476562 7.126953125 m 1
 505.751953125 7.46875 l 1
 -0.43359375 403.663085938 l 1
 0.26953125 404.212890625 l 1
 507.125 800.192382812 l 1
 1000.41699219 405.240234375 l 1
 999.740234375 404.6953125 l 1
 506.188476562 7.126953125 l 1
1.8310546875 403.661132812 m 1
 506.17578125 8.9091796875 l 1
 998.188476562 405.235351562 l 1
 507.114257812 798.413085938 l 1
 1.8310546875 403.661132812 l 1
657.599609375 283.390625 m 1
 655.095703125 285.360351562 l 2
 621.776367188 311.5859375 556.640625 362.876953125 494.760742188 411.721679688 c 0
 355.874023438 521.353515625 355.881835938 521.912109375 355.890625 522.502929688 c 2
 356.174804688 523.056640625 l 1
 356.590820312 522.494140625 l 1
 356.58984375 522.49609375 l 1
 356.592773438 522.49609375 l 1
 357.147460938 522.897460938 l 2
 359.734375 519.942382812 513.19921875 398.822265625 655.95703125 286.45703125 c 0
 659.00390625 284.059570312 659.00390625 284.059570312 658.588867188 283.513671875 c 2
 657.599609375 283.390625 l 1
357.208007812 284.418945312 m 1
 356.342773438 285.514648438 l 1
 657.1484375 523.045898438 l 1
 658.013671875 521.948242188 l 1
 357.208007812 284.418945312 l 1
506.779296875 8.017578125 m 1xf6
 505.383789062 8.0205078125 l 1xf6
 506.421875 799.303710938 l 1
 507.817382812 799.301757812 l 1xf5
 506.779296875 8.017578125 l 1xf6
0.69921875 402.963867188 m 1
 0.6962890625 404.359375 l 1
 999.30078125 405.934570312 l 1
 999.303710938 404.5390625 l 1
 0.69921875 402.963867188 l 1
509.283203125 163.536132812 m 1
 504.958984375 163.536132812 l 1
 354.614257812 282.229492188 l 1
 354.614257812 287.706054688 l 1
 501.490234375 403.661132812 l 1
 354.614257812 519.616210938 l 1
 354.649414062 525.12109375 l 1
 508.94921875 643.811523438 l 1
 513.274414062 643.755859375 l 1
 659.6640625 525.065429688 l 1
 659.62890625 519.616210938 l 1
 512.75390625 403.661132812 l 1
 659.62890625 287.706054688 l 1
 659.62890625 282.229492188 l 1
 509.283203125 163.536132812 l 1
362.408203125 284.967773438 m 1
 507.12109375 170.721679688 l 1
 651.834960938 284.967773438 l 1
 507.12109375 399.21484375 l 1
 362.408203125 284.967773438 l 1
362.453125 522.319335938 m 1
 507.12109375 408.108398438 l 1
 651.879882812 522.392578125 l 1
 511.01953125 636.6015625 l 1
 362.453125 522.319335938 l 1
360.265625 522.35546875 m 1
 353.287109375 522.35546875 l 1
 353.287109375 284.967773438 l 1
 360.265625 284.967773438 l 1
 360.265625 522.35546875 l 1
EndSplineSet
Validated: 8912933
EndChar

StartChar: l
Encoding: 108 108 14
Width: 1000
VWidth: 0
HStem: 402.964 1.39551<0.698242 503.164 506.653 999.301>
VStem: 355.892 1.39844<284.635 521.799> 505.383 1.39551<8.02051 799.302> 506.423 1.39551<8.02051 397.844 399.706 633.847 640.156 799.302>
LayerCount: 2
Fore
SplineSet
658.732421875 283.23828125 m 1xc0
 658.27734375 523.194335938 l 1
 355.891601562 523.194335938 l 1
 356.348632812 283.23828125 l 1
 658.732421875 283.23828125 l 1xc0
656.883789062 521.798828125 m 1
 657.333984375 284.634765625 l 1
 357.741210938 284.634765625 l 1
 357.290039062 521.798828125 l 1
 656.883789062 521.798828125 l 1
507.120117188 641.932617188 m 1
 205.303710938 403.661132812 l 1
 507.046875 165.944335938 l 1
 808.934570312 404.641601562 l 1
 507.120117188 641.932617188 l 1
207.557617188 403.662109375 m 1
 507.12109375 640.15625 l 1
 806.680664062 404.638671875 l 1
 507.044921875 167.72265625 l 1
 207.557617188 403.662109375 l 1
507.125976562 800.192382812 m 1
 -0.435546875 403.662109375 l 1
 506.1875 7.12890625 l 1
 1000.41601562 405.239257812 l 1
 507.125976562 800.192382812 l 1
1.830078125 403.661132812 m 1
 507.115234375 798.412109375 l 1
 998.186523438 405.235351562 l 1
 506.17578125 8.9111328125 l 1
 1.830078125 403.661132812 l 1
658.033203125 283.936523438 m 1
 657.625 283.370117188 l 1
 658.2109375 282.948242188 362.5625 516.615234375 356.590820312 522.497070312 c 2
 356.17578125 523.057617188 l 1
 355.420898438 522.499023438 356.041992188 522.049804688 356.041992188 522.049804688 c 0
 358.651367188 518.5234375 656.161132812 284.52734375 657.595703125 283.392578125 c 0
 658.688476562 282.524414062 658.033203125 283.936523438 658.033203125 283.936523438 c 1
356.342773438 285.515625 m 1
 357.208007812 284.420898438 l 1
 658.013671875 521.94921875 l 1
 657.1484375 523.044921875 l 1
 356.342773438 285.515625 l 1
507.818359375 799.301757812 m 1xd0
 506.422851562 799.302734375 l 1xd0
 505.3828125 8.0205078125 l 1
 506.778320312 8.0185546875 l 1xe0
 507.818359375 799.301757812 l 1xd0
999.302734375 404.5390625 m 1
 999.30078125 405.935546875 l 1
 0.6962890625 404.359375 l 1
 0.6982421875 402.963867188 l 1
 999.302734375 404.5390625 l 1
503.1640625 399.706054688 m 1
 555.077148438 442.056640625 605.30078125 478.524414062 655.71484375 519.651367188 c 0
 659.083984375 522.399414062 l 1
 499.674804688 648.247070312 l 1
 499.674804688 159.333007812 l 1
 659.547851562 278.212890625 l 1
 655.383789062 283.8125 l 1
 506.653320312 173.21875 l 1
 506.653320312 397.84375 l 0
 503.1640625 399.706054688 l 1
506.653320312 407.055664062 m 1
 506.653320312 633.846679688 l 1
 647.934570312 522.310546875 l 1
 506.653320312 407.055664062 l 1
EndSplineSet
Validated: 524325
EndChar

StartChar: m
Encoding: 109 109 15
Width: 1000
VWidth: 0
HStem: 402.964 1.39551<0.698242 999.301> 404.539 1.39648<0.698242 999.301>
VStem: 355.892 1.39844<284.635 521.799> 505.383 1.39551<8.02051 631.131 640.156 799.302> 506.423 1.39551<8.02051 167.723 640.156 799.302> 650.301 6.41699<298.168 520.687>
LayerCount: 2
Fore
SplineSet
658.732421875 283.23828125 m 1xe4
 658.27734375 523.194335938 l 1
 355.891601562 523.194335938 l 1
 356.348632812 283.23828125 l 1
 658.732421875 283.23828125 l 1xe4
656.883789062 521.798828125 m 1
 657.333984375 284.634765625 l 1
 357.741210938 284.634765625 l 1
 357.290039062 521.798828125 l 1
 656.883789062 521.798828125 l 1
507.120117188 641.932617188 m 1
 205.303710938 403.661132812 l 1
 507.046875 165.944335938 l 1
 808.934570312 404.641601562 l 1
 507.120117188 641.932617188 l 1
207.557617188 403.662109375 m 1
 507.12109375 640.15625 l 1
 806.680664062 404.638671875 l 1
 507.044921875 167.72265625 l 1
 207.557617188 403.662109375 l 1
507.125976562 800.192382812 m 1
 -0.435546875 403.662109375 l 1
 506.1875 7.12890625 l 1
 1000.41601562 405.239257812 l 1
 507.125976562 800.192382812 l 1
1.830078125 403.661132812 m 1
 507.115234375 798.412109375 l 1
 998.186523438 405.235351562 l 1
 506.17578125 8.9111328125 l 1
 1.830078125 403.661132812 l 1
658.033203125 283.936523438 m 1
 657.625 283.370117188 l 1
 658.2109375 282.948242188 362.5625 516.615234375 356.590820312 522.497070312 c 2
 356.17578125 523.057617188 l 1
 355.420898438 522.499023438 356.041992188 522.049804688 356.041992188 522.049804688 c 0
 358.651367188 518.5234375 656.161132812 284.52734375 657.595703125 283.392578125 c 0
 658.688476562 282.524414062 658.033203125 283.936523438 658.033203125 283.936523438 c 1
356.342773438 285.515625 m 1
 357.208007812 284.420898438 l 1
 658.013671875 521.94921875 l 1
 657.1484375 523.044921875 l 1
 356.342773438 285.515625 l 1
507.818359375 799.301757812 m 1xec
 506.422851562 799.302734375 l 1xec
 505.3828125 8.0205078125 l 1
 506.778320312 8.0185546875 l 1xf4
 507.818359375 799.301757812 l 1xec
999.302734375 404.5390625 m 1
 999.30078125 405.935546875 l 1
 0.6962890625 404.359375 l 1
 0.6982421875 402.963867188 l 1
 999.302734375 404.5390625 l 1
510.353515625 642.361328125 m 1
 507.12109375 641.046875 l 1
 504.958984375 643.786132812 l 1
 353.315429688 524.068359375 l 1
 349.038085938 267.466796875 l 1
 506.626953125 631.130859375 l 1
 650.27734375 279.698242188 l 0
 656.717773438 263.857421875 l 1
 660.983398438 524.024414062 l 1
 505.72265625 646.596679688 l 1
 504.370117188 643.474609375 l 0
 503.815429688 642.194335938 510.353515625 642.361328125 510.353515625 642.361328125 c 1
498.412109375 629.7265625 m 1
 356.6015625 302.471679688 l 1
 360.237304688 520.641601562 l 1
 498.412109375 629.7265625 l 1
515.330078125 630.120117188 m 1
 653.94921875 520.686523438 l 1
 650.30078125 298.16796875 l 1
 515.330078125 630.120117188 l 1
EndSplineSet
Validated: 524325
EndChar

StartChar: n
Encoding: 110 110 16
Width: 1000
VWidth: 0
HStem: 402.964 1.39551<0.698242 999.301> 404.539 1.39648<0.698242 999.301>
VStem: 355.892 1.39844<284.635 521.799> 505.383 1.39551<8.02051 799.302> 506.423 1.39551<8.02051 167.723 640.156 799.302> 653.975 6.97852<284.635 521.799>
LayerCount: 2
Fore
SplineSet
658.732421875 283.23828125 m 1xe4
 658.27734375 523.194335938 l 1
 355.891601562 523.194335938 l 1
 356.348632812 283.23828125 l 1
 658.732421875 283.23828125 l 1xe4
656.883789062 521.798828125 m 1
 657.333984375 284.634765625 l 1
 357.741210938 284.634765625 l 1
 357.290039062 521.798828125 l 1
 656.883789062 521.798828125 l 1
507.120117188 641.932617188 m 1
 205.303710938 403.661132812 l 1
 507.046875 165.944335938 l 1
 808.934570312 404.641601562 l 1
 507.120117188 641.932617188 l 1
207.557617188 403.662109375 m 1
 507.12109375 640.15625 l 1
 806.680664062 404.638671875 l 1
 507.044921875 167.72265625 l 1
 207.557617188 403.662109375 l 1
507.125976562 800.192382812 m 1
 -0.435546875 403.662109375 l 1
 506.1875 7.12890625 l 1
 1000.41601562 405.239257812 l 1
 507.125976562 800.192382812 l 1
1.830078125 403.661132812 m 1
 507.115234375 798.412109375 l 1
 998.186523438 405.235351562 l 1
 506.17578125 8.9111328125 l 1
 1.830078125 403.661132812 l 1
658.033203125 283.936523438 m 1
 657.625 283.370117188 l 1
 658.2109375 282.948242188 362.5625 516.615234375 356.590820312 522.497070312 c 2
 356.17578125 523.057617188 l 1
 355.420898438 522.499023438 356.041992188 522.049804688 356.041992188 522.049804688 c 0
 358.651367188 518.5234375 656.161132812 284.52734375 657.595703125 283.392578125 c 0
 658.688476562 282.524414062 658.033203125 283.936523438 658.033203125 283.936523438 c 1
356.342773438 285.515625 m 1
 357.208007812 284.420898438 l 1
 658.013671875 521.94921875 l 1
 657.1484375 523.044921875 l 1
 356.342773438 285.515625 l 1
507.818359375 799.301757812 m 1xec
 506.422851562 799.302734375 l 1xec
 505.3828125 8.0205078125 l 1
 506.778320312 8.0185546875 l 1xf4
 507.818359375 799.301757812 l 1xec
999.302734375 404.5390625 m 1
 999.30078125 405.935546875 l 1
 0.6962890625 404.359375 l 1
 0.6982421875 402.963867188 l 1
 999.302734375 404.5390625 l 1
349.624023438 286.370117188 m 1
 356.015625 283.569335938 l 1
 508.534179688 631.622070312 l 1
 653.9765625 520.62890625 l 1
 653.974609375 284.969726562 l 1
 660.953125 284.969726562 l 1
 660.956054688 524.081054688 l 1
 505.70703125 642.55859375 l 1
 349.624023438 286.370117188 l 1
EndSplineSet
Validated: 524325
EndChar

StartChar: u
Encoding: 117 117 17
Width: 1000
VWidth: 0
HStem: 402.964 1.39551<0.698242 999.301> 404.539 1.39648<0.698242 999.301> 521.799 0.556641<357.29 360.266 653.977 656.884>
VStem: 355.892 1.39844<284.635 521.799> 505.383 1.39551<8.02051 799.302> 506.423 1.39551<8.02051 799.302> 653.977 6.97852<284.635 522.355>
LayerCount: 2
Fore
SplineSet
658.732421875 283.23828125 m 1xf2
 658.27734375 523.194335938 l 1
 355.891601562 523.194335938 l 1
 356.348632812 283.23828125 l 1
 658.732421875 283.23828125 l 1xf2
656.883789062 521.798828125 m 1
 657.333984375 284.634765625 l 1
 357.741210938 284.634765625 l 1
 357.290039062 521.798828125 l 1
 656.883789062 521.798828125 l 1
507.120117188 641.932617188 m 1
 205.303710938 403.661132812 l 1
 507.046875 165.944335938 l 1
 808.934570312 404.641601562 l 1
 507.120117188 641.932617188 l 1
207.557617188 403.662109375 m 1
 507.12109375 640.15625 l 1
 806.680664062 404.638671875 l 1
 507.044921875 167.72265625 l 1
 207.557617188 403.662109375 l 1
507.125976562 800.192382812 m 1
 -0.435546875 403.662109375 l 1
 506.1875 7.12890625 l 1
 1000.41601562 405.239257812 l 1
 507.125976562 800.192382812 l 1
1.830078125 403.661132812 m 1
 507.115234375 798.412109375 l 1
 998.186523438 405.235351562 l 1
 506.17578125 8.9111328125 l 1
 1.830078125 403.661132812 l 1
658.033203125 283.936523438 m 1
 657.625 283.370117188 l 1
 658.2109375 282.948242188 362.5625 516.615234375 356.590820312 522.497070312 c 2
 356.17578125 523.057617188 l 1
 355.420898438 522.499023438 356.041992188 522.049804688 356.041992188 522.049804688 c 0
 358.651367188 518.5234375 656.161132812 284.52734375 657.595703125 283.392578125 c 0
 658.688476562 282.524414062 658.033203125 283.936523438 658.033203125 283.936523438 c 1
356.342773438 285.515625 m 1
 357.208007812 284.420898438 l 1
 658.013671875 521.94921875 l 1
 657.1484375 523.044921875 l 1
 356.342773438 285.515625 l 1
507.818359375 799.301757812 m 1xf6
 506.422851562 799.302734375 l 1xf6
 505.3828125 8.0205078125 l 1
 506.778320312 8.0185546875 l 1xfa
 507.818359375 799.301757812 l 1xf6
999.302734375 404.5390625 m 1
 999.30078125 405.935546875 l 1
 0.6962890625 404.359375 l 1
 0.6982421875 402.963867188 l 1
 999.302734375 404.5390625 l 1
360.265625 522.35546875 m 1
 353.287109375 522.35546875 l 1
 353.287109375 283.278320312 l 1
 507.12109375 161.830078125 l 1
 660.955078125 283.278320312 l 1
 660.955078125 522.35546875 l 1
 653.9765625 522.35546875 l 1
 653.9765625 286.66015625 l 1
 507.12109375 170.721679688 l 1
 360.265625 286.66015625 l 1
 360.265625 522.35546875 l 1
EndSplineSet
Validated: 524325
EndChar

StartChar: v
Encoding: 118 118 18
Width: 1000
VWidth: 0
Flags: H
LayerCount: 2
Fore
SplineSet
658.732421875 283.23828125 m 1
 658.27734375 523.194335938 l 1
 355.891601562 523.194335938 l 1
 356.348632812 283.23828125 l 1
 658.732421875 283.23828125 l 1
656.883789062 521.798828125 m 1
 657.333984375 284.634765625 l 1
 357.741210938 284.634765625 l 1
 357.290039062 521.798828125 l 1
 656.883789062 521.798828125 l 1
507.120117188 641.932617188 m 1
 205.303710938 403.661132812 l 1
 507.046875 165.944335938 l 1
 808.934570312 404.641601562 l 1
 507.120117188 641.932617188 l 1
207.557617188 403.662109375 m 1
 507.12109375 640.15625 l 1
 806.680664062 404.638671875 l 1
 507.044921875 167.72265625 l 1
 207.557617188 403.662109375 l 1
507.125976562 800.192382812 m 1
 -0.435546875 403.662109375 l 1
 506.1875 7.12890625 l 1
 1000.41601562 405.239257812 l 1
 507.125976562 800.192382812 l 1
1.830078125 403.661132812 m 1
 507.115234375 798.412109375 l 1
 998.186523438 405.235351562 l 1
 506.17578125 8.9111328125 l 1
 1.830078125 403.661132812 l 1
658.033203125 283.936523438 m 1
 657.625 283.370117188 l 1
 658.2109375 282.948242188 362.5625 516.615234375 356.590820312 522.497070312 c 2
 356.17578125 523.057617188 l 1
 355.420898438 522.499023438 356.041992188 522.049804688 356.041992188 522.049804688 c 0
 358.651367188 518.5234375 656.161132812 284.52734375 657.595703125 283.392578125 c 0
 658.688476562 282.524414062 658.033203125 283.936523438 658.033203125 283.936523438 c 1
356.342773438 285.515625 m 1
 357.208007812 284.420898438 l 1
 658.013671875 521.94921875 l 1
 657.1484375 523.044921875 l 1
 356.342773438 285.515625 l 1
507.818359375 799.301757812 m 1
 506.422851562 799.302734375 l 1
 505.3828125 8.0205078125 l 1
 506.778320312 8.0185546875 l 1
 507.818359375 799.301757812 l 1
999.302734375 404.5390625 m 1
 999.30078125 405.935546875 l 1
 0.6962890625 404.359375 l 1
 0.6982421875 402.963867188 l 1
 999.302734375 404.5390625 l 1
360.265625 526.310546875 m 1
 353.287109375 526.310546875 l 1
 353.287109375 283.271484375 l 1
 504.553710938 164.7109375 l 1
 660.662109375 520.954101562 l 1
 654.270507812 523.755859375 l 1
 501.774414062 175.755859375 l 1
 360.265625 286.66796875 l 1
 360.265625 526.310546875 l 1
EndSplineSet
EndChar

StartChar: r
Encoding: 114 114 19
Width: 1000
VWidth: 0
Flags: H
LayerCount: 2
Fore
SplineSet
658.732421875 283.23828125 m 1
 658.27734375 523.194335938 l 1
 355.891601562 523.194335938 l 1
 356.348632812 283.23828125 l 1
 658.732421875 283.23828125 l 1
656.883789062 521.798828125 m 1
 657.333984375 284.634765625 l 1
 357.741210938 284.634765625 l 1
 357.290039062 521.798828125 l 1
 656.883789062 521.798828125 l 1
507.120117188 641.932617188 m 1
 205.303710938 403.661132812 l 1
 507.046875 165.944335938 l 1
 808.934570312 404.641601562 l 1
 507.120117188 641.932617188 l 1
207.557617188 403.662109375 m 1
 507.12109375 640.15625 l 1
 806.680664062 404.638671875 l 1
 507.044921875 167.72265625 l 1
 207.557617188 403.662109375 l 1
507.125976562 800.192382812 m 1
 -0.435546875 403.662109375 l 1
 506.1875 7.12890625 l 1
 1000.41601562 405.239257812 l 1
 507.125976562 800.192382812 l 1
1.830078125 403.661132812 m 1
 507.115234375 798.412109375 l 1
 998.186523438 405.235351562 l 1
 506.17578125 8.9111328125 l 1
 1.830078125 403.661132812 l 1
658.033203125 283.936523438 m 1
 657.625 283.370117188 l 1
 658.2109375 282.948242188 362.5625 516.615234375 356.590820312 522.497070312 c 2
 356.17578125 523.057617188 l 1
 355.420898438 522.499023438 356.041992188 522.049804688 356.041992188 522.049804688 c 0
 358.651367188 518.5234375 656.161132812 284.52734375 657.595703125 283.392578125 c 0
 658.688476562 282.524414062 658.033203125 283.936523438 658.033203125 283.936523438 c 1
356.342773438 285.515625 m 1
 357.208007812 284.420898438 l 1
 658.013671875 521.94921875 l 1
 657.1484375 523.044921875 l 1
 356.342773438 285.515625 l 1
507.818359375 799.301757812 m 1
 506.422851562 799.302734375 l 1
 505.3828125 8.0205078125 l 1
 506.778320312 8.0185546875 l 1
 507.818359375 799.301757812 l 1
999.302734375 404.5390625 m 1
 999.30078125 405.935546875 l 1
 0.6962890625 404.359375 l 1
 0.6982421875 402.963867188 l 1
 999.302734375 404.5390625 l 1
353.287109375 284.969726562 m 1
 360.265625 284.969726562 l 1
 360.265625 520.6640625 l 1
 507.12109375 636.6015625 l 1
 655.303710938 519.616210938 l 1
 659.627929688 525.09375 l 1
 507.12109375 645.493164062 l 1
 353.287109375 524.045898438 l 1
 353.287109375 284.969726562 l 1
EndSplineSet
EndChar

StartChar: s
Encoding: 115 115 20
Width: 1000
VWidth: 0
Flags: H
LayerCount: 2
Fore
SplineSet
658.732421875 283.23828125 m 1
 658.27734375 523.194335938 l 1
 355.891601562 523.194335938 l 1
 356.348632812 283.23828125 l 1
 658.732421875 283.23828125 l 1
656.883789062 521.798828125 m 1
 657.333984375 284.634765625 l 1
 357.741210938 284.634765625 l 1
 357.290039062 521.798828125 l 1
 656.883789062 521.798828125 l 1
507.120117188 641.932617188 m 1
 205.303710938 403.661132812 l 1
 507.046875 165.944335938 l 1
 808.934570312 404.641601562 l 1
 507.120117188 641.932617188 l 1
207.557617188 403.662109375 m 1
 507.12109375 640.15625 l 1
 806.680664062 404.638671875 l 1
 507.044921875 167.72265625 l 1
 207.557617188 403.662109375 l 1
507.125976562 800.192382812 m 1
 -0.435546875 403.662109375 l 1
 506.1875 7.12890625 l 1
 1000.41601562 405.239257812 l 1
 507.125976562 800.192382812 l 1
1.830078125 403.661132812 m 1
 507.115234375 798.412109375 l 1
 998.186523438 405.235351562 l 1
 506.17578125 8.9111328125 l 1
 1.830078125 403.661132812 l 1
658.033203125 283.936523438 m 1
 657.625 283.370117188 l 1
 658.2109375 282.948242188 362.5625 516.615234375 356.590820312 522.497070312 c 2
 356.17578125 523.057617188 l 1
 355.420898438 522.499023438 356.041992188 522.049804688 356.041992188 522.049804688 c 0
 358.651367188 518.5234375 656.161132812 284.52734375 657.595703125 283.392578125 c 0
 658.688476562 282.524414062 658.033203125 283.936523438 658.033203125 283.936523438 c 1
356.342773438 285.515625 m 1
 357.208007812 284.420898438 l 1
 658.013671875 521.94921875 l 1
 657.1484375 523.044921875 l 1
 356.342773438 285.515625 l 1
507.818359375 799.301757812 m 1
 506.422851562 799.302734375 l 1
 505.3828125 8.0205078125 l 1
 506.778320312 8.0185546875 l 1
 507.818359375 799.301757812 l 1
999.302734375 404.5390625 m 1
 999.30078125 405.935546875 l 1
 0.6962890625 404.359375 l 1
 0.6982421875 402.963867188 l 1
 999.302734375 404.5390625 l 1
360.265625 526.310546875 m 1
 353.287109375 526.310546875 l 1
 353.287109375 283.271484375 l 1
 504.553710938 164.7109375 l 1
 660.662109375 520.954101562 l 1
 654.270507812 523.755859375 l 1
 501.774414062 175.755859375 l 1
 360.265625 286.66796875 l 1
 360.265625 526.310546875 l 1
EndSplineSet
EndChar

StartChar: t
Encoding: 116 116 21
Width: 1000
VWidth: 0
Flags: H
LayerCount: 2
Fore
SplineSet
658.27734375 523.194335938 m 1
 355.891601562 523.194335938 l 1
 356.348632812 283.23828125 l 1
 658.732421875 283.23828125 l 1
 658.27734375 523.194335938 l 1
357.290039062 521.798828125 m 1
 656.883789062 521.798828125 l 1
 657.333984375 284.634765625 l 1
 357.741210938 284.634765625 l 1
 357.290039062 521.798828125 l 1
205.303710938 403.661132812 m 1
 507.046875 165.944335938 l 1
 808.934570312 404.641601562 l 1
 507.120117188 641.932617188 l 1
 205.303710938 403.661132812 l 1
507.044921875 167.72265625 m 1
 207.557617188 403.662109375 l 1
 507.12109375 640.15625 l 1
 806.680664062 404.638671875 l 1
 507.044921875 167.72265625 l 1
-0.435546875 403.662109375 m 1
 506.1875 7.12890625 l 1
 1000.41601562 405.239257812 l 1
 507.125976562 800.192382812 l 1
 -0.435546875 403.662109375 l 1
506.17578125 8.9111328125 m 1
 1.830078125 403.661132812 l 1
 507.115234375 798.412109375 l 1
 998.186523438 405.235351562 l 1
 506.17578125 8.9111328125 l 1
356.577148438 522.516601562 m 2
 356.17578125 523.057617188 l 1
 356.124023438 523.01953125 356.251953125 522.845703125 356.577148438 522.516601562 c 2
356.342773438 285.515625 m 1
 357.208007812 284.420898438 l 1
 658.013671875 521.94921875 l 1
 657.1484375 523.044921875 l 1
 356.342773438 285.515625 l 1
507.818359375 799.301757812 m 1
 506.422851562 799.302734375 l 1
 505.3828125 8.0205078125 l 1
 506.778320312 8.0185546875 l 1
 507.818359375 799.301757812 l 1
999.302734375 404.5390625 m 1
 999.30078125 405.935546875 l 1
 0.6962890625 404.359375 l 1
 0.6982421875 402.963867188 l 1
 999.302734375 404.5390625 l 1
503.630859375 166.276367188 m 1
 510.610351562 166.276367188 l 1
 510.610351562 518.866210938 l 1
 657.463867188 518.866210938 l 1
 657.463867188 525.844726562 l 1
 510.616210938 525.844726562 l 1
 510.610351562 648.247070312 l 1
 346.725585938 518.866210938 l 1
 503.624023438 518.866210938 l 1
 503.630859375 166.276367188 l 1
503.630859375 525.844726562 m 1
 366.827148438 525.844726562 l 1
 503.630859375 633.846679688 l 1
 503.630859375 525.844726562 l 1
EndSplineSet
EndChar

StartChar: y
Encoding: 121 121 22
Width: 1000
VWidth: 0
Flags: H
LayerCount: 2
Fore
SplineSet
658.732421875 283.23828125 m 1
 658.27734375 523.194335938 l 1
 355.891601562 523.194335938 l 1
 356.348632812 283.23828125 l 1
 658.732421875 283.23828125 l 1
656.883789062 521.798828125 m 1
 657.333984375 284.634765625 l 1
 357.741210938 284.634765625 l 1
 357.290039062 521.798828125 l 1
 656.883789062 521.798828125 l 1
507.120117188 641.932617188 m 1
 205.303710938 403.661132812 l 1
 507.046875 165.944335938 l 1
 808.934570312 404.641601562 l 1
 507.120117188 641.932617188 l 1
207.557617188 403.662109375 m 1
 507.12109375 640.15625 l 1
 806.680664062 404.638671875 l 1
 507.044921875 167.72265625 l 1
 207.557617188 403.662109375 l 1
507.125976562 800.192382812 m 1
 -0.435546875 403.662109375 l 1
 506.1875 7.12890625 l 1
 1000.41601562 405.239257812 l 1
 507.125976562 800.192382812 l 1
1.830078125 403.661132812 m 1
 507.115234375 798.412109375 l 1
 998.186523438 405.235351562 l 1
 506.17578125 8.9111328125 l 1
 1.830078125 403.661132812 l 1
356.577148438 522.516601562 m 2
 356.17578125 523.057617188 l 1
 356.124023438 523.01953125 356.251953125 522.845703125 356.577148438 522.516601562 c 2
356.342773438 285.515625 m 1
 357.208007812 284.420898438 l 1
 658.013671875 521.94921875 l 1
 657.1484375 523.044921875 l 1
 356.342773438 285.515625 l 1
507.818359375 799.301757812 m 1
 506.422851562 799.302734375 l 1
 505.3828125 8.0205078125 l 1
 506.778320312 8.0185546875 l 1
 507.818359375 799.301757812 l 1
999.302734375 404.5390625 m 1
 999.30078125 405.935546875 l 1
 0.6962890625 404.359375 l 1
 0.6982421875 402.963867188 l 1
 999.302734375 404.5390625 l 1
657.465820312 522.35546875 m 1
 657.465820312 525.844726562 l 1
 346.725585938 525.844726562 l 1
 507.12109375 399.215820312 l 1
 653.9765625 515.154296875 l 1
 653.9765625 286.66015625 l 1
 504.958984375 169.014648438 l 1
 509.283203125 163.537109375 l 1
 660.955078125 283.278320312 l 1
 660.955078125 529.555664062 l 1
 656.918945312 526.368164062 l 0
 657.465820312 522.35546875 l 1
647.415039062 518.866210938 m 1
 507.12109375 408.107421875 l 1
 366.827148438 518.866210938 l 1
 647.415039062 518.866210938 l 1
EndSplineSet
EndChar

StartChar: z
Encoding: 122 122 23
Width: 1000
VWidth: 0
Flags: H
LayerCount: 2
Fore
SplineSet
658.27734375 523.194335938 m 1
 355.891601562 523.194335938 l 1
 356.348632812 283.23828125 l 1
 658.732421875 283.23828125 l 1
 658.27734375 523.194335938 l 1
357.290039062 521.798828125 m 1
 656.883789062 521.798828125 l 1
 657.333984375 284.634765625 l 1
 357.741210938 284.634765625 l 1
 357.290039062 521.798828125 l 1
205.303710938 403.661132812 m 1
 507.046875 165.944335938 l 1
 808.934570312 404.641601562 l 1
 507.120117188 641.932617188 l 1
 205.303710938 403.661132812 l 1
507.044921875 167.72265625 m 1
 207.557617188 403.662109375 l 1
 507.12109375 640.15625 l 1
 806.680664062 404.638671875 l 1
 507.044921875 167.72265625 l 1
-0.435546875 403.662109375 m 1
 506.1875 7.12890625 l 1
 1000.41601562 405.239257812 l 1
 507.125976562 800.192382812 l 1
 -0.435546875 403.662109375 l 1
506.17578125 8.9111328125 m 1
 1.830078125 403.661132812 l 1
 507.115234375 798.412109375 l 1
 998.186523438 405.235351562 l 1
 506.17578125 8.9111328125 l 1
356.577148438 522.516601562 m 2
 356.17578125 523.057617188 l 1
 356.124023438 523.01953125 356.251953125 522.845703125 356.577148438 522.516601562 c 2
356.342773438 285.515625 m 1
 357.208007812 284.420898438 l 1
 658.013671875 521.94921875 l 1
 657.1484375 523.044921875 l 1
 356.342773438 285.515625 l 1
507.818359375 799.301757812 m 1
 506.422851562 799.302734375 l 1
 505.3828125 8.0205078125 l 1
 506.778320312 8.0185546875 l 1
 507.818359375 799.301757812 l 1
999.302734375 404.5390625 m 1
 999.30078125 405.935546875 l 1
 0.6962890625 404.359375 l 1
 0.6982421875 402.963867188 l 1
 999.302734375 404.5390625 l 1
646.9765625 518.866210938 m 1
 351.145507812 284.969726562 l 1
 507.12109375 161.830078125 l 1
 667.517578125 288.458984375 l 1
 367.265625 288.458984375 l 1
 663.09765625 522.35546875 l 1
 507.12109375 645.493164062 l 1
 346.725585938 518.866210938 l 1
 646.9765625 518.866210938 l 1
366.827148438 281.48046875 m 1
 647.415039062 281.48046875 l 1
 507.12109375 170.721679688 l 1
 366.827148438 281.48046875 l 1
647.415039062 525.844726562 m 1
 366.827148438 525.844726562 l 1
 507.12109375 636.6015625 l 1
 647.415039062 525.844726562 l 1
EndSplineSet
EndChar

StartChar: question
Encoding: 63 63 24
Width: 1000
VWidth: 0
Flags: H
LayerCount: 2
Fore
SplineSet
658.732421875 283.23828125 m 1
 658.27734375 523.194335938 l 1
 355.891601562 523.194335938 l 1
 356.348632812 283.23828125 l 1
 658.732421875 283.23828125 l 1
656.883789062 521.798828125 m 1
 657.333984375 284.634765625 l 1
 357.741210938 284.634765625 l 1
 357.290039062 521.798828125 l 1
 656.883789062 521.798828125 l 1
507.120117188 641.932617188 m 1
 205.303710938 403.661132812 l 1
 507.046875 165.944335938 l 1
 808.934570312 404.641601562 l 1
 507.120117188 641.932617188 l 1
207.557617188 403.662109375 m 1
 507.12109375 640.15625 l 1
 806.680664062 404.638671875 l 1
 507.044921875 167.72265625 l 1
 207.557617188 403.662109375 l 1
507.125976562 800.192382812 m 1
 -0.435546875 403.662109375 l 1
 506.1875 7.12890625 l 1
 1000.41601562 405.239257812 l 1
 507.125976562 800.192382812 l 1
1.830078125 403.661132812 m 1
 507.115234375 798.412109375 l 1
 998.186523438 405.235351562 l 1
 506.17578125 8.9111328125 l 1
 1.830078125 403.661132812 l 1
356.577148438 522.516601562 m 2
 356.17578125 523.057617188 l 1
 356.124023438 523.01953125 356.251953125 522.845703125 356.577148438 522.516601562 c 2
356.342773438 285.515625 m 1
 357.208007812 284.420898438 l 1
 658.013671875 521.94921875 l 1
 657.1484375 523.044921875 l 1
 356.342773438 285.515625 l 1
507.818359375 799.301757812 m 1
 506.422851562 799.302734375 l 1
 505.3828125 8.0205078125 l 1
 506.778320312 8.0185546875 l 1
 507.818359375 799.301757812 l 1
999.302734375 404.5390625 m 1
 999.30078125 405.935546875 l 1
 0.6962890625 404.359375 l 1
 0.6982421875 402.963867188 l 1
 999.302734375 404.5390625 l 1
354.614257812 525.09375 m 1
 358.938476562 519.616210938 l 1
 507.12109375 636.6015625 l 1
 651.834960938 522.35546875 l 1
 503.630859375 405.352539062 l 1
 503.630859375 170.233398438 l 1
 510.610351562 170.233398438 l 1
 510.610351562 401.970703125 l 1
 663.09765625 522.35546875 l 1
 507.12109375 645.493164062 l 1
 354.614257812 525.09375 l 1
EndSplineSet
EndChar
